G04 EAGLE Gerber RS-274X export*
G75*
%MOMM*%
%FSLAX34Y34*%
%LPD*%
%INSilkscreen Top*%
%IPPOS*%
%AMOC8*
5,1,8,0,0,1.08239X$1,22.5*%
G01*
%ADD10C,0.127000*%
%ADD11C,0.101600*%


D10*
X-231703Y50000D02*
X-231703Y20000D01*
X-231703Y-20000D02*
X-231703Y-50000D01*
X-482107Y-25000D02*
X-482107Y25000D01*
X-4000Y31000D02*
X-4000Y-31000D01*
D11*
X-459555Y-4572D02*
X-459555Y4572D01*
X-457015Y4572D01*
X-456915Y4570D01*
X-456816Y4564D01*
X-456716Y4554D01*
X-456618Y4541D01*
X-456519Y4523D01*
X-456422Y4502D01*
X-456326Y4477D01*
X-456230Y4448D01*
X-456136Y4415D01*
X-456043Y4379D01*
X-455952Y4339D01*
X-455862Y4295D01*
X-455774Y4248D01*
X-455688Y4198D01*
X-455604Y4144D01*
X-455522Y4087D01*
X-455443Y4027D01*
X-455365Y3963D01*
X-455291Y3897D01*
X-455219Y3828D01*
X-455150Y3756D01*
X-455084Y3682D01*
X-455020Y3604D01*
X-454960Y3525D01*
X-454903Y3443D01*
X-454849Y3359D01*
X-454799Y3273D01*
X-454752Y3185D01*
X-454708Y3095D01*
X-454668Y3004D01*
X-454632Y2911D01*
X-454599Y2817D01*
X-454570Y2721D01*
X-454545Y2625D01*
X-454524Y2528D01*
X-454506Y2429D01*
X-454493Y2331D01*
X-454483Y2231D01*
X-454477Y2132D01*
X-454475Y2032D01*
X-454477Y1932D01*
X-454483Y1833D01*
X-454493Y1733D01*
X-454506Y1635D01*
X-454524Y1536D01*
X-454545Y1439D01*
X-454570Y1343D01*
X-454599Y1247D01*
X-454632Y1153D01*
X-454668Y1060D01*
X-454708Y969D01*
X-454752Y879D01*
X-454799Y791D01*
X-454849Y705D01*
X-454903Y621D01*
X-454960Y539D01*
X-455020Y460D01*
X-455084Y382D01*
X-455150Y308D01*
X-455219Y236D01*
X-455291Y167D01*
X-455365Y101D01*
X-455443Y37D01*
X-455522Y-23D01*
X-455604Y-80D01*
X-455688Y-134D01*
X-455774Y-184D01*
X-455862Y-231D01*
X-455952Y-275D01*
X-456043Y-315D01*
X-456136Y-351D01*
X-456230Y-384D01*
X-456326Y-413D01*
X-456422Y-438D01*
X-456519Y-459D01*
X-456618Y-477D01*
X-456716Y-490D01*
X-456816Y-500D01*
X-456915Y-506D01*
X-457015Y-508D01*
X-459555Y-508D01*
X-456507Y-508D02*
X-454475Y-4572D01*
X-450152Y-4572D02*
X-446088Y-4572D01*
X-450152Y-4572D02*
X-450152Y4572D01*
X-446088Y4572D01*
X-447104Y508D02*
X-450152Y508D01*
X-437219Y508D02*
X-434679Y508D01*
X-434579Y506D01*
X-434480Y500D01*
X-434380Y490D01*
X-434282Y477D01*
X-434183Y459D01*
X-434086Y438D01*
X-433990Y413D01*
X-433894Y384D01*
X-433800Y351D01*
X-433707Y315D01*
X-433616Y275D01*
X-433526Y231D01*
X-433438Y184D01*
X-433352Y134D01*
X-433268Y80D01*
X-433186Y23D01*
X-433107Y-37D01*
X-433029Y-101D01*
X-432955Y-167D01*
X-432883Y-236D01*
X-432814Y-308D01*
X-432748Y-382D01*
X-432684Y-460D01*
X-432624Y-539D01*
X-432567Y-621D01*
X-432513Y-705D01*
X-432463Y-791D01*
X-432416Y-879D01*
X-432372Y-969D01*
X-432332Y-1060D01*
X-432296Y-1153D01*
X-432263Y-1247D01*
X-432234Y-1343D01*
X-432209Y-1439D01*
X-432188Y-1536D01*
X-432170Y-1635D01*
X-432157Y-1733D01*
X-432147Y-1833D01*
X-432141Y-1932D01*
X-432139Y-2032D01*
X-432141Y-2132D01*
X-432147Y-2231D01*
X-432157Y-2331D01*
X-432170Y-2429D01*
X-432188Y-2528D01*
X-432209Y-2625D01*
X-432234Y-2721D01*
X-432263Y-2817D01*
X-432296Y-2911D01*
X-432332Y-3004D01*
X-432372Y-3095D01*
X-432416Y-3185D01*
X-432463Y-3273D01*
X-432513Y-3359D01*
X-432567Y-3443D01*
X-432624Y-3525D01*
X-432684Y-3604D01*
X-432748Y-3682D01*
X-432814Y-3756D01*
X-432883Y-3828D01*
X-432955Y-3897D01*
X-433029Y-3963D01*
X-433107Y-4027D01*
X-433186Y-4087D01*
X-433268Y-4144D01*
X-433352Y-4198D01*
X-433438Y-4248D01*
X-433526Y-4295D01*
X-433616Y-4339D01*
X-433707Y-4379D01*
X-433800Y-4415D01*
X-433894Y-4448D01*
X-433990Y-4477D01*
X-434086Y-4502D01*
X-434183Y-4523D01*
X-434282Y-4541D01*
X-434380Y-4554D01*
X-434480Y-4564D01*
X-434579Y-4570D01*
X-434679Y-4572D01*
X-437219Y-4572D01*
X-437219Y4572D01*
X-434679Y4572D01*
X-434590Y4570D01*
X-434502Y4564D01*
X-434414Y4555D01*
X-434326Y4541D01*
X-434239Y4524D01*
X-434153Y4503D01*
X-434068Y4478D01*
X-433984Y4449D01*
X-433901Y4417D01*
X-433820Y4382D01*
X-433741Y4342D01*
X-433663Y4300D01*
X-433587Y4254D01*
X-433513Y4205D01*
X-433442Y4152D01*
X-433373Y4097D01*
X-433306Y4038D01*
X-433242Y3977D01*
X-433181Y3913D01*
X-433122Y3846D01*
X-433067Y3777D01*
X-433014Y3706D01*
X-432965Y3632D01*
X-432919Y3556D01*
X-432877Y3478D01*
X-432837Y3399D01*
X-432802Y3318D01*
X-432770Y3235D01*
X-432741Y3151D01*
X-432716Y3066D01*
X-432695Y2980D01*
X-432678Y2893D01*
X-432664Y2805D01*
X-432655Y2717D01*
X-432649Y2629D01*
X-432647Y2540D01*
X-432649Y2451D01*
X-432655Y2363D01*
X-432664Y2275D01*
X-432678Y2187D01*
X-432695Y2100D01*
X-432716Y2014D01*
X-432741Y1929D01*
X-432770Y1845D01*
X-432802Y1762D01*
X-432837Y1681D01*
X-432877Y1602D01*
X-432919Y1524D01*
X-432965Y1448D01*
X-433014Y1374D01*
X-433067Y1303D01*
X-433122Y1234D01*
X-433181Y1167D01*
X-433242Y1103D01*
X-433306Y1042D01*
X-433373Y983D01*
X-433442Y928D01*
X-433513Y875D01*
X-433587Y826D01*
X-433663Y780D01*
X-433741Y738D01*
X-433820Y698D01*
X-433901Y663D01*
X-433984Y631D01*
X-434068Y602D01*
X-434153Y577D01*
X-434239Y556D01*
X-434326Y539D01*
X-434414Y525D01*
X-434502Y516D01*
X-434590Y510D01*
X-434679Y508D01*
X-429040Y4572D02*
X-425992Y254D01*
X-422944Y4572D01*
X-425992Y254D02*
X-425992Y-4572D01*
X-419540Y-3810D02*
X-419540Y-3302D01*
X-419032Y-3302D01*
X-419032Y-3810D01*
X-419540Y-3810D01*
X-419540Y254D02*
X-419540Y762D01*
X-419032Y762D01*
X-419032Y254D01*
X-419540Y254D01*
X-410244Y2032D02*
X-410244Y-2032D01*
X-410244Y2032D02*
X-410242Y2132D01*
X-410236Y2231D01*
X-410226Y2331D01*
X-410213Y2429D01*
X-410195Y2528D01*
X-410174Y2625D01*
X-410149Y2721D01*
X-410120Y2817D01*
X-410087Y2911D01*
X-410051Y3004D01*
X-410011Y3095D01*
X-409967Y3185D01*
X-409920Y3273D01*
X-409870Y3359D01*
X-409816Y3443D01*
X-409759Y3525D01*
X-409699Y3604D01*
X-409635Y3682D01*
X-409569Y3756D01*
X-409500Y3828D01*
X-409428Y3897D01*
X-409354Y3963D01*
X-409276Y4027D01*
X-409197Y4087D01*
X-409115Y4144D01*
X-409031Y4198D01*
X-408945Y4248D01*
X-408857Y4295D01*
X-408767Y4339D01*
X-408676Y4379D01*
X-408583Y4415D01*
X-408489Y4448D01*
X-408393Y4477D01*
X-408297Y4502D01*
X-408200Y4523D01*
X-408101Y4541D01*
X-408003Y4554D01*
X-407903Y4564D01*
X-407804Y4570D01*
X-407704Y4572D01*
X-407604Y4570D01*
X-407505Y4564D01*
X-407405Y4554D01*
X-407307Y4541D01*
X-407208Y4523D01*
X-407111Y4502D01*
X-407015Y4477D01*
X-406919Y4448D01*
X-406825Y4415D01*
X-406732Y4379D01*
X-406641Y4339D01*
X-406551Y4295D01*
X-406463Y4248D01*
X-406377Y4198D01*
X-406293Y4144D01*
X-406211Y4087D01*
X-406132Y4027D01*
X-406054Y3963D01*
X-405980Y3897D01*
X-405908Y3828D01*
X-405839Y3756D01*
X-405773Y3682D01*
X-405709Y3604D01*
X-405649Y3525D01*
X-405592Y3443D01*
X-405538Y3359D01*
X-405488Y3273D01*
X-405441Y3185D01*
X-405397Y3095D01*
X-405357Y3004D01*
X-405321Y2911D01*
X-405288Y2817D01*
X-405259Y2721D01*
X-405234Y2625D01*
X-405213Y2528D01*
X-405195Y2429D01*
X-405182Y2331D01*
X-405172Y2231D01*
X-405166Y2132D01*
X-405164Y2032D01*
X-405164Y-2032D01*
X-405166Y-2132D01*
X-405172Y-2231D01*
X-405182Y-2331D01*
X-405195Y-2429D01*
X-405213Y-2528D01*
X-405234Y-2625D01*
X-405259Y-2721D01*
X-405288Y-2817D01*
X-405321Y-2911D01*
X-405357Y-3004D01*
X-405397Y-3095D01*
X-405441Y-3185D01*
X-405488Y-3273D01*
X-405538Y-3359D01*
X-405592Y-3443D01*
X-405649Y-3525D01*
X-405709Y-3604D01*
X-405773Y-3682D01*
X-405839Y-3756D01*
X-405908Y-3828D01*
X-405980Y-3897D01*
X-406054Y-3963D01*
X-406132Y-4027D01*
X-406211Y-4087D01*
X-406293Y-4144D01*
X-406377Y-4198D01*
X-406463Y-4248D01*
X-406551Y-4295D01*
X-406641Y-4339D01*
X-406732Y-4379D01*
X-406825Y-4415D01*
X-406919Y-4448D01*
X-407015Y-4477D01*
X-407111Y-4502D01*
X-407208Y-4523D01*
X-407307Y-4541D01*
X-407405Y-4554D01*
X-407505Y-4564D01*
X-407604Y-4570D01*
X-407704Y-4572D01*
X-407804Y-4570D01*
X-407903Y-4564D01*
X-408003Y-4554D01*
X-408101Y-4541D01*
X-408200Y-4523D01*
X-408297Y-4502D01*
X-408393Y-4477D01*
X-408489Y-4448D01*
X-408583Y-4415D01*
X-408676Y-4379D01*
X-408767Y-4339D01*
X-408857Y-4295D01*
X-408945Y-4248D01*
X-409031Y-4198D01*
X-409115Y-4144D01*
X-409197Y-4087D01*
X-409276Y-4027D01*
X-409354Y-3963D01*
X-409428Y-3897D01*
X-409500Y-3828D01*
X-409569Y-3756D01*
X-409635Y-3682D01*
X-409699Y-3604D01*
X-409759Y-3525D01*
X-409816Y-3443D01*
X-409870Y-3359D01*
X-409920Y-3273D01*
X-409967Y-3185D01*
X-410011Y-3095D01*
X-410051Y-3004D01*
X-410087Y-2911D01*
X-410120Y-2817D01*
X-410149Y-2721D01*
X-410174Y-2625D01*
X-410195Y-2528D01*
X-410213Y-2429D01*
X-410226Y-2331D01*
X-410236Y-2231D01*
X-410242Y-2132D01*
X-410244Y-2032D01*
X-401105Y-3048D02*
X-401105Y4572D01*
X-401105Y-3048D02*
X-401103Y-3125D01*
X-401097Y-3202D01*
X-401087Y-3279D01*
X-401074Y-3355D01*
X-401056Y-3430D01*
X-401035Y-3504D01*
X-401010Y-3577D01*
X-400981Y-3649D01*
X-400949Y-3719D01*
X-400914Y-3788D01*
X-400874Y-3854D01*
X-400832Y-3919D01*
X-400786Y-3981D01*
X-400737Y-4041D01*
X-400686Y-4098D01*
X-400631Y-4153D01*
X-400574Y-4204D01*
X-400514Y-4253D01*
X-400452Y-4299D01*
X-400387Y-4341D01*
X-400321Y-4381D01*
X-400252Y-4416D01*
X-400182Y-4448D01*
X-400110Y-4477D01*
X-400037Y-4502D01*
X-399963Y-4523D01*
X-399888Y-4541D01*
X-399812Y-4554D01*
X-399735Y-4564D01*
X-399658Y-4570D01*
X-399581Y-4572D01*
X-392314Y-4572D02*
X-392314Y4572D01*
X-392314Y-4572D02*
X-394854Y-4572D01*
X-394931Y-4570D01*
X-395008Y-4564D01*
X-395085Y-4554D01*
X-395161Y-4541D01*
X-395236Y-4523D01*
X-395310Y-4502D01*
X-395383Y-4477D01*
X-395455Y-4448D01*
X-395525Y-4416D01*
X-395594Y-4381D01*
X-395660Y-4341D01*
X-395725Y-4299D01*
X-395787Y-4253D01*
X-395847Y-4204D01*
X-395904Y-4153D01*
X-395959Y-4098D01*
X-396010Y-4041D01*
X-396059Y-3981D01*
X-396105Y-3919D01*
X-396147Y-3854D01*
X-396187Y-3788D01*
X-396222Y-3719D01*
X-396254Y-3649D01*
X-396283Y-3577D01*
X-396308Y-3504D01*
X-396329Y-3430D01*
X-396347Y-3355D01*
X-396360Y-3279D01*
X-396370Y-3202D01*
X-396376Y-3125D01*
X-396378Y-3048D01*
X-396378Y0D01*
X-396376Y77D01*
X-396370Y154D01*
X-396360Y231D01*
X-396347Y307D01*
X-396329Y382D01*
X-396308Y456D01*
X-396283Y529D01*
X-396254Y601D01*
X-396222Y671D01*
X-396187Y740D01*
X-396147Y806D01*
X-396105Y871D01*
X-396059Y933D01*
X-396010Y993D01*
X-395959Y1050D01*
X-395904Y1105D01*
X-395847Y1156D01*
X-395787Y1205D01*
X-395725Y1251D01*
X-395660Y1293D01*
X-395594Y1333D01*
X-395525Y1368D01*
X-395455Y1400D01*
X-395383Y1429D01*
X-395310Y1454D01*
X-395236Y1475D01*
X-395161Y1493D01*
X-395085Y1506D01*
X-395008Y1516D01*
X-394931Y1522D01*
X-394854Y1524D01*
X-392314Y1524D01*
X-384133Y508D02*
X-382609Y508D01*
X-382609Y-4572D01*
X-385657Y-4572D01*
X-385746Y-4570D01*
X-385834Y-4564D01*
X-385922Y-4555D01*
X-386010Y-4541D01*
X-386097Y-4524D01*
X-386183Y-4503D01*
X-386268Y-4478D01*
X-386352Y-4449D01*
X-386435Y-4417D01*
X-386516Y-4382D01*
X-386595Y-4342D01*
X-386673Y-4300D01*
X-386749Y-4254D01*
X-386823Y-4205D01*
X-386894Y-4152D01*
X-386963Y-4097D01*
X-387030Y-4038D01*
X-387094Y-3977D01*
X-387155Y-3913D01*
X-387214Y-3846D01*
X-387269Y-3777D01*
X-387322Y-3706D01*
X-387371Y-3632D01*
X-387417Y-3556D01*
X-387459Y-3478D01*
X-387499Y-3399D01*
X-387534Y-3318D01*
X-387566Y-3235D01*
X-387595Y-3151D01*
X-387620Y-3066D01*
X-387641Y-2980D01*
X-387658Y-2893D01*
X-387672Y-2805D01*
X-387681Y-2717D01*
X-387687Y-2629D01*
X-387689Y-2540D01*
X-387689Y2540D01*
X-387687Y2629D01*
X-387681Y2717D01*
X-387672Y2805D01*
X-387658Y2893D01*
X-387641Y2980D01*
X-387620Y3066D01*
X-387595Y3151D01*
X-387566Y3235D01*
X-387534Y3318D01*
X-387499Y3399D01*
X-387459Y3478D01*
X-387417Y3556D01*
X-387371Y3632D01*
X-387322Y3706D01*
X-387269Y3777D01*
X-387214Y3846D01*
X-387155Y3913D01*
X-387094Y3977D01*
X-387030Y4038D01*
X-386963Y4097D01*
X-386894Y4152D01*
X-386823Y4205D01*
X-386749Y4254D01*
X-386673Y4300D01*
X-386595Y4342D01*
X-386516Y4382D01*
X-386435Y4417D01*
X-386352Y4449D01*
X-386268Y4478D01*
X-386183Y4503D01*
X-386097Y4524D01*
X-386010Y4541D01*
X-385922Y4555D01*
X-385834Y4564D01*
X-385746Y4570D01*
X-385657Y4572D01*
X-382609Y4572D01*
X-376818Y-4572D02*
X-374278Y-4572D01*
X-376818Y-4572D02*
X-376895Y-4570D01*
X-376972Y-4564D01*
X-377049Y-4554D01*
X-377125Y-4541D01*
X-377200Y-4523D01*
X-377274Y-4502D01*
X-377347Y-4477D01*
X-377419Y-4448D01*
X-377489Y-4416D01*
X-377558Y-4381D01*
X-377624Y-4341D01*
X-377689Y-4299D01*
X-377751Y-4253D01*
X-377811Y-4204D01*
X-377868Y-4153D01*
X-377923Y-4098D01*
X-377974Y-4041D01*
X-378023Y-3981D01*
X-378069Y-3919D01*
X-378111Y-3854D01*
X-378151Y-3788D01*
X-378186Y-3719D01*
X-378218Y-3649D01*
X-378247Y-3577D01*
X-378272Y-3504D01*
X-378293Y-3430D01*
X-378311Y-3355D01*
X-378324Y-3279D01*
X-378334Y-3202D01*
X-378340Y-3125D01*
X-378342Y-3048D01*
X-378342Y-508D01*
X-378340Y-419D01*
X-378334Y-331D01*
X-378325Y-243D01*
X-378311Y-155D01*
X-378294Y-68D01*
X-378273Y18D01*
X-378248Y103D01*
X-378219Y187D01*
X-378187Y270D01*
X-378152Y351D01*
X-378112Y430D01*
X-378070Y508D01*
X-378024Y584D01*
X-377975Y658D01*
X-377922Y729D01*
X-377867Y798D01*
X-377808Y865D01*
X-377747Y929D01*
X-377683Y990D01*
X-377616Y1049D01*
X-377547Y1104D01*
X-377476Y1157D01*
X-377402Y1206D01*
X-377326Y1252D01*
X-377248Y1294D01*
X-377169Y1334D01*
X-377088Y1369D01*
X-377005Y1401D01*
X-376921Y1430D01*
X-376836Y1455D01*
X-376750Y1476D01*
X-376663Y1493D01*
X-376575Y1507D01*
X-376487Y1516D01*
X-376399Y1522D01*
X-376310Y1524D01*
X-376221Y1522D01*
X-376133Y1516D01*
X-376045Y1507D01*
X-375957Y1493D01*
X-375870Y1476D01*
X-375784Y1455D01*
X-375699Y1430D01*
X-375615Y1401D01*
X-375532Y1369D01*
X-375451Y1334D01*
X-375372Y1294D01*
X-375294Y1252D01*
X-375218Y1206D01*
X-375144Y1157D01*
X-375073Y1104D01*
X-375004Y1049D01*
X-374937Y990D01*
X-374873Y929D01*
X-374812Y865D01*
X-374753Y798D01*
X-374698Y729D01*
X-374645Y658D01*
X-374596Y584D01*
X-374550Y508D01*
X-374508Y430D01*
X-374468Y351D01*
X-374433Y270D01*
X-374401Y187D01*
X-374372Y103D01*
X-374347Y18D01*
X-374326Y-68D01*
X-374309Y-155D01*
X-374295Y-243D01*
X-374286Y-331D01*
X-374280Y-419D01*
X-374278Y-508D01*
X-374278Y-1524D01*
X-378342Y-1524D01*
X-370052Y-4572D02*
X-370052Y1524D01*
X-367004Y1524D01*
X-367004Y508D01*
X-363508Y1524D02*
X-363508Y-4572D01*
X-363508Y1524D02*
X-358936Y1524D01*
X-358859Y1522D01*
X-358782Y1516D01*
X-358705Y1506D01*
X-358629Y1493D01*
X-358554Y1475D01*
X-358480Y1454D01*
X-358407Y1429D01*
X-358335Y1400D01*
X-358265Y1368D01*
X-358196Y1333D01*
X-358130Y1293D01*
X-358065Y1251D01*
X-358003Y1205D01*
X-357943Y1156D01*
X-357886Y1105D01*
X-357831Y1050D01*
X-357780Y993D01*
X-357731Y933D01*
X-357685Y871D01*
X-357643Y806D01*
X-357603Y740D01*
X-357568Y671D01*
X-357536Y601D01*
X-357507Y529D01*
X-357482Y456D01*
X-357461Y382D01*
X-357443Y307D01*
X-357430Y231D01*
X-357420Y154D01*
X-357414Y77D01*
X-357412Y0D01*
X-357412Y-4572D01*
X-360460Y-4572D02*
X-360460Y1524D01*
X-351318Y-1016D02*
X-349032Y-1016D01*
X-351318Y-1016D02*
X-351401Y-1018D01*
X-351484Y-1024D01*
X-351567Y-1034D01*
X-351650Y-1047D01*
X-351731Y-1065D01*
X-351812Y-1086D01*
X-351891Y-1111D01*
X-351969Y-1140D01*
X-352046Y-1172D01*
X-352121Y-1208D01*
X-352195Y-1247D01*
X-352266Y-1290D01*
X-352336Y-1336D01*
X-352403Y-1386D01*
X-352468Y-1438D01*
X-352530Y-1493D01*
X-352590Y-1552D01*
X-352647Y-1613D01*
X-352701Y-1676D01*
X-352752Y-1742D01*
X-352799Y-1811D01*
X-352844Y-1881D01*
X-352885Y-1954D01*
X-352922Y-2028D01*
X-352957Y-2104D01*
X-352987Y-2182D01*
X-353014Y-2260D01*
X-353037Y-2341D01*
X-353057Y-2422D01*
X-353072Y-2504D01*
X-353084Y-2586D01*
X-353092Y-2669D01*
X-353096Y-2752D01*
X-353096Y-2836D01*
X-353092Y-2919D01*
X-353084Y-3002D01*
X-353072Y-3084D01*
X-353057Y-3166D01*
X-353037Y-3247D01*
X-353014Y-3328D01*
X-352987Y-3406D01*
X-352957Y-3484D01*
X-352922Y-3560D01*
X-352885Y-3634D01*
X-352844Y-3707D01*
X-352799Y-3777D01*
X-352752Y-3846D01*
X-352701Y-3912D01*
X-352647Y-3975D01*
X-352590Y-4036D01*
X-352530Y-4095D01*
X-352468Y-4150D01*
X-352403Y-4202D01*
X-352336Y-4252D01*
X-352266Y-4298D01*
X-352195Y-4341D01*
X-352121Y-4380D01*
X-352046Y-4416D01*
X-351969Y-4448D01*
X-351891Y-4477D01*
X-351812Y-4502D01*
X-351731Y-4523D01*
X-351650Y-4541D01*
X-351567Y-4554D01*
X-351484Y-4564D01*
X-351401Y-4570D01*
X-351318Y-4572D01*
X-349032Y-4572D01*
X-349032Y0D01*
X-349034Y77D01*
X-349040Y154D01*
X-349050Y231D01*
X-349063Y307D01*
X-349081Y382D01*
X-349102Y456D01*
X-349127Y529D01*
X-349156Y601D01*
X-349188Y671D01*
X-349223Y740D01*
X-349263Y806D01*
X-349305Y871D01*
X-349351Y933D01*
X-349400Y993D01*
X-349451Y1050D01*
X-349506Y1105D01*
X-349563Y1156D01*
X-349623Y1205D01*
X-349685Y1251D01*
X-349750Y1293D01*
X-349816Y1333D01*
X-349885Y1368D01*
X-349955Y1400D01*
X-350027Y1429D01*
X-350100Y1454D01*
X-350174Y1475D01*
X-350249Y1493D01*
X-350325Y1506D01*
X-350402Y1516D01*
X-350479Y1522D01*
X-350556Y1524D01*
X-352588Y1524D01*
X-344509Y1524D02*
X-344509Y-4572D01*
X-344509Y1524D02*
X-341969Y1524D01*
X-341892Y1522D01*
X-341815Y1516D01*
X-341738Y1506D01*
X-341662Y1493D01*
X-341587Y1475D01*
X-341513Y1454D01*
X-341440Y1429D01*
X-341368Y1400D01*
X-341298Y1368D01*
X-341229Y1333D01*
X-341163Y1293D01*
X-341098Y1251D01*
X-341036Y1205D01*
X-340976Y1156D01*
X-340919Y1105D01*
X-340864Y1050D01*
X-340813Y993D01*
X-340764Y933D01*
X-340718Y871D01*
X-340676Y806D01*
X-340636Y740D01*
X-340601Y671D01*
X-340569Y601D01*
X-340540Y529D01*
X-340515Y456D01*
X-340494Y382D01*
X-340476Y307D01*
X-340463Y231D01*
X-340453Y154D01*
X-340447Y77D01*
X-340445Y0D01*
X-340445Y-4572D01*
M02*
